# xmcd
#
# Track frame offsets:
#	150
#	12867
#	34168
#	47569
#	63782
#	79579
#	99944
#	113814
#	129093
#	148211
#	163870
#	183408
#	205212
#
# Disc length: 3055 seconds
# Revision: 0
# Processed by: cddbd v1.5.2PL0 Copyright (c) Steve Scherf et al.
# Submitted via: dBpowerAMP V12.0
#
DISCID=a40bed0d
DTITLE=Ann Weiss - Where Folk Gets the Blues: Blues, Disc 2
DYEAR=2012
DGENRE=Blues
TTITLE0=Perpetual Blues Machine
TTITLE1=Hop in the Truck
TTITLE2=It Hurts Me Too
TTITLE3=Come On In My Kitchen
TTITLE4=Snowbound
TTITLE5=Looks Like Satin
TTITLE6=Too Long at the Fair
TTITLE7=Walk Down the Road
TTITLE8=The Ballad of Mary Magdalene
TTITLE9=Love in Vain
TTITLE10=Love is the Dagger
TTITLE11=Shadow of Doubt
TTITLE12=John Muir's Brook
EXTD=
EXTT0=
EXTT1=
EXTT2=
EXTT3=
EXTT4=
EXTT5=
EXTT6=
EXTT7=
EXTT8=
EXTT9=
EXTT10=
EXTT11=
EXTT12=
PLAYORDER=
